<?xml version="1.0" standalone="no"?><!DOCTYPE svg PUBLIC "-//W3C//DTD SVG 1.1//EN" "http://www.w3.org/Graphics/SVG/1.1/DTD/svg11.dtd"><svg t="1552728240631" class="icon" style="" viewBox="0 0 1024 1024" version="1.1" xmlns="http://www.w3.org/2000/svg" p-id="9226" xmlns:xlink="http://www.w3.org/1999/xlink" width="200" height="200"><defs><style type="text/css">html, * {  }
</style></defs><path d="M1024 768v73.142857q0 14.857143-10.857143 25.714286t-25.714286 10.857143H36.571429q-14.857143 0-25.714286-10.857143t-10.857143-25.714286v-73.142857q0-14.857143 10.857143-25.714286t25.714286-10.857143h950.857142q14.857143 0 25.714286 10.857143t10.857143 25.714286z m0-219.428571v73.142857q0 14.857143-10.857143 25.714285t-25.714286 10.857143H36.571429q-14.857143 0-25.714286-10.857143t-10.857143-25.714285V548.571429q0-14.857143 10.857143-25.714286t25.714286-10.857143h950.857142q14.857143 0 25.714286 10.857143t10.857143 25.714286z m0-219.428572v73.142857q0 14.857143-10.857143 25.714286t-25.714286 10.857143H36.571429q-14.857143 0-25.714286-10.857143T0 402.285714V329.142857q0-14.857143 10.857143-25.714286t25.714286-10.857142h950.857142q14.857143 0 25.714286 10.857142t10.857143 25.714286z m0-219.428571v73.142857q0 14.857143-10.857143 25.714286t-25.714286 10.857142H36.571429q-14.857143 0-25.714286-10.857142T0 182.857143V109.714286q0-14.857143 10.857143-25.714286t25.714286-10.857143h950.857142q14.857143 0 25.714286 10.857143t10.857143 25.714286z" p-id="9227" fill="#ffffff"></path></svg>