<?xml version="1.0" standalone="no"?><!DOCTYPE svg PUBLIC "-//W3C//DTD SVG 1.1//EN" "http://www.w3.org/Graphics/SVG/1.1/DTD/svg11.dtd"><svg t="1552559289467" class="icon" style="" viewBox="0 0 1024 1024" version="1.1" xmlns="http://www.w3.org/2000/svg" p-id="8321" xmlns:xlink="http://www.w3.org/1999/xlink" width="200" height="200"><defs><style type="text/css">html, * {  }
</style></defs><path d="M402.285714 877.714286q0 29.714286-21.714285 51.428571t-51.428572 21.714286-51.428571-21.714286-21.714286-51.428571 21.714286-51.428572 51.428571-21.714285 51.428572 21.714285 21.714285 51.428572z m512 0q0 29.714286-21.714285 51.428571t-51.428572 21.714286-51.428571-21.714286-21.714286-51.428571 21.714286-51.428572 51.428571-21.714285 51.428572 21.714285 21.714285 51.428572z m73.142857-621.714286v292.571429q0 13.714286-9.428571 24.285714T954.857143 585.142857L358.285714 654.857143q7.428571 34.285714 7.428572 40 0 9.142857-13.714286 36.571428h525.714286q14.857143 0 25.714285 10.857143t10.857143 25.714286-10.857143 25.714286-25.714285 10.857143H292.571429q-14.857143 0-25.714286-10.857143t-10.857143-25.714286q0-6.285714 4.571429-18t9.142857-20.571429 12.285714-22.857142T290.857143 689.714286L189.714286 219.428571H73.142857q-14.857143 0-25.714286-10.857142t-10.857142-25.714286 10.857142-25.714286 25.714286-10.857143h146.285714q9.142857 0 16.285715 3.714286T246.857143 158.857143t7.428571 14 4.571429 14.857143 3.142857 16.857143 2.571429 14.857142h686.285714q14.857143 0 25.714286 10.857143t10.857142 25.714286z" p-id="8322"></path></svg>