<?xml version="1.0" standalone="no"?><!DOCTYPE svg PUBLIC "-//W3C//DTD SVG 1.1//EN" "http://www.w3.org/Graphics/SVG/1.1/DTD/svg11.dtd"><svg t="1552814162310" class="icon" style="" viewBox="0 0 1024 1024" version="1.1" xmlns="http://www.w3.org/2000/svg" p-id="9226" xmlns:xlink="http://www.w3.org/1999/xlink" width="200" height="200"><defs><style type="text/css">html, * {  }
</style></defs><path d="M1004 804.571429l20 178.857142q1.714286 16-9.142857 28.571429-10.857143 12-27.428572 12H36.571429q-16.571429 0-27.428572-12-10.857143-12.571429-9.142857-28.571429l20-178.857142h984z m-53.142857-479.428572l49.142857 442.857143H24l49.142857-442.857143q1.714286-13.714286 12-23.142857t24.571429-9.428571h146.285714v73.142857q0 30.285714 21.428571 51.714285T329.142857 438.857143t51.714286-21.428572T402.285714 365.714286V292.571429h219.428572v73.142857q0 30.285714 21.428571 51.714285T694.857143 438.857143t51.714286-21.428572T768 365.714286V292.571429h146.285714q14.285714 0 24.571429 9.428571t12 23.142857z m-219.428572-105.714286v146.285715q0 14.857143-10.857142 25.714285t-25.714286 10.857143-25.714286-10.857143-10.857143-25.714285V219.428571q0-60.571429-42.857143-103.428571t-103.428571-42.857143-103.428571 42.857143-42.857143 103.428571v146.285715q0 14.857143-10.857143 25.714285t-25.714286 10.857143-25.714286-10.857143-10.857142-25.714285V219.428571q0-90.857143 64.285714-155.142857T512 0t155.142857 64.285714T731.428571 219.428571z" p-id="9227" fill="#ffffff"></path></svg>