<?xml version="1.0" standalone="no"?><!DOCTYPE svg PUBLIC "-//W3C//DTD SVG 1.1//EN" "http://www.w3.org/Graphics/SVG/1.1/DTD/svg11.dtd"><svg t="1552559297927" class="icon" style="" viewBox="0 0 1024 1024" version="1.1" xmlns="http://www.w3.org/2000/svg" p-id="8516" xmlns:xlink="http://www.w3.org/1999/xlink" width="200" height="200"><defs><style type="text/css">html, * {  }
</style></defs><path d="M914.285714 802.857143q0 68.571429-41.714285 108.285714t-110.857143 39.714286H262.285714q-69.142857 0-110.857143-39.714286T109.714286 802.857143q0-30.285714 2-59.142857t8-62.285715T134.857143 619.428571t24.571428-55.714285 35.428572-46.285715 48.857143-30.571428T307.428571 475.428571q5.142857 0 24 12.285715t42.571429 27.428571 61.714286 27.428572T512 554.857143t76.285714-12.285714 61.714286-27.428572 42.571429-27.428571 24-12.285715q34.857143 0 63.714285 11.428572t48.857143 30.571428 35.428572 46.285715 24.571428 55.714285 15.142857 62 8 62.285715 2 59.142857z m-182.857143-510.285714q0 90.857143-64.285714 155.142857T512 512 356.857143 447.714286 292.571429 292.571429t64.285714-155.142858T512 73.142857t155.142857 64.285714T731.428571 292.571429z" p-id="8517"></path></svg>