<?xml version="1.0" standalone="no"?><!DOCTYPE svg PUBLIC "-//W3C//DTD SVG 1.1//EN" "http://www.w3.org/Graphics/SVG/1.1/DTD/svg11.dtd"><svg t="1552559269918" class="icon" style="" viewBox="0 0 1024 1024" version="1.1" xmlns="http://www.w3.org/2000/svg" p-id="8192" xmlns:xlink="http://www.w3.org/1999/xlink" width="200" height="200"><defs><style type="text/css">html, * {  }
</style></defs><path d="M256 841.142857q0-14.857143-10.857143-25.714286t-25.714286-10.857142-25.714285 10.857142-10.857143 25.714286 10.857143 25.714286 25.714285 10.857143 25.714286-10.857143 10.857143-25.714286z m368-240l-389.714286 389.714286q-21.142857 21.142857-51.428571 21.142857-29.714286 0-52-21.142857l-60.571429-61.714286q-21.714286-20.571429-21.714285-51.428571 0-30.285714 21.714285-52l389.142857-389.142857q22.285714 56 65.428572 99.142857T624 601.142857z m362.285714-248.571428q0 22.285714-13.142857 60.571428-26.857143 76.571429-94 124.285714T731.428571 585.142857q-105.714286 0-180.857142-75.142857T475.428571 329.142857t75.142858-180.857143T731.428571 73.142857q33.142857 0 69.428572 9.428572T862.285714 109.142857q9.142857 6.285714 9.142857 16t-9.142857 16l-167.428571 96.571429v128l110.285714 61.142857q2.857143-1.714286 45.142857-27.714286t77.428572-46.285714T968 332.571429q8.571429 0 13.428571 5.714285t4.857143 14.285715z" p-id="8193"></path></svg>