<?xml version="1.0" encoding="utf-8"?>
<!DOCTYPE svg PUBLIC "-//W3C//DTD SVG 20010904//EN" "http://www.w3.org/TR/2001/REC-SVG-20010904/DTD/svg10.dtd">
<svg xmlns="http://www.w3.org/2000/svg" xml:space="preserve" xmlns:xlink="http://www.w3.org/1999/xlink" width="348" height="348" viewBox="0 0 348 348">
<desc></desc>
<rect width="348" height="348" fill="#ffffff" cx="0" cy="0" />
<defs>
<rect id="p" width="12" height="12" />
</defs>
<g fill="#000000">
<use x="24" y="24" xlink:href="#p" />
<use x="36" y="24" xlink:href="#p" />
<use x="48" y="24" xlink:href="#p" />
<use x="60" y="24" xlink:href="#p" />
<use x="72" y="24" xlink:href="#p" />
<use x="84" y="24" xlink:href="#p" />
<use x="96" y="24" xlink:href="#p" />
<use x="180" y="24" xlink:href="#p" />
<use x="240" y="24" xlink:href="#p" />
<use x="252" y="24" xlink:href="#p" />
<use x="264" y="24" xlink:href="#p" />
<use x="276" y="24" xlink:href="#p" />
<use x="288" y="24" xlink:href="#p" />
<use x="300" y="24" xlink:href="#p" />
<use x="312" y="24" xlink:href="#p" />
<use x="24" y="36" xlink:href="#p" />
<use x="96" y="36" xlink:href="#p" />
<use x="132" y="36" xlink:href="#p" />
<use x="144" y="36" xlink:href="#p" />
<use x="156" y="36" xlink:href="#p" />
<use x="168" y="36" xlink:href="#p" />
<use x="180" y="36" xlink:href="#p" />
<use x="204" y="36" xlink:href="#p" />
<use x="216" y="36" xlink:href="#p" />
<use x="240" y="36" xlink:href="#p" />
<use x="312" y="36" xlink:href="#p" />
<use x="24" y="48" xlink:href="#p" />
<use x="48" y="48" xlink:href="#p" />
<use x="60" y="48" xlink:href="#p" />
<use x="72" y="48" xlink:href="#p" />
<use x="96" y="48" xlink:href="#p" />
<use x="120" y="48" xlink:href="#p" />
<use x="180" y="48" xlink:href="#p" />
<use x="192" y="48" xlink:href="#p" />
<use x="216" y="48" xlink:href="#p" />
<use x="240" y="48" xlink:href="#p" />
<use x="264" y="48" xlink:href="#p" />
<use x="276" y="48" xlink:href="#p" />
<use x="288" y="48" xlink:href="#p" />
<use x="312" y="48" xlink:href="#p" />
<use x="24" y="60" xlink:href="#p" />
<use x="48" y="60" xlink:href="#p" />
<use x="60" y="60" xlink:href="#p" />
<use x="72" y="60" xlink:href="#p" />
<use x="96" y="60" xlink:href="#p" />
<use x="120" y="60" xlink:href="#p" />
<use x="144" y="60" xlink:href="#p" />
<use x="156" y="60" xlink:href="#p" />
<use x="192" y="60" xlink:href="#p" />
<use x="240" y="60" xlink:href="#p" />
<use x="264" y="60" xlink:href="#p" />
<use x="276" y="60" xlink:href="#p" />
<use x="288" y="60" xlink:href="#p" />
<use x="312" y="60" xlink:href="#p" />
<use x="24" y="72" xlink:href="#p" />
<use x="48" y="72" xlink:href="#p" />
<use x="60" y="72" xlink:href="#p" />
<use x="72" y="72" xlink:href="#p" />
<use x="96" y="72" xlink:href="#p" />
<use x="132" y="72" xlink:href="#p" />
<use x="144" y="72" xlink:href="#p" />
<use x="192" y="72" xlink:href="#p" />
<use x="204" y="72" xlink:href="#p" />
<use x="216" y="72" xlink:href="#p" />
<use x="240" y="72" xlink:href="#p" />
<use x="264" y="72" xlink:href="#p" />
<use x="276" y="72" xlink:href="#p" />
<use x="288" y="72" xlink:href="#p" />
<use x="312" y="72" xlink:href="#p" />
<use x="24" y="84" xlink:href="#p" />
<use x="96" y="84" xlink:href="#p" />
<use x="180" y="84" xlink:href="#p" />
<use x="192" y="84" xlink:href="#p" />
<use x="204" y="84" xlink:href="#p" />
<use x="240" y="84" xlink:href="#p" />
<use x="312" y="84" xlink:href="#p" />
<use x="24" y="96" xlink:href="#p" />
<use x="36" y="96" xlink:href="#p" />
<use x="48" y="96" xlink:href="#p" />
<use x="60" y="96" xlink:href="#p" />
<use x="72" y="96" xlink:href="#p" />
<use x="84" y="96" xlink:href="#p" />
<use x="96" y="96" xlink:href="#p" />
<use x="120" y="96" xlink:href="#p" />
<use x="144" y="96" xlink:href="#p" />
<use x="168" y="96" xlink:href="#p" />
<use x="192" y="96" xlink:href="#p" />
<use x="216" y="96" xlink:href="#p" />
<use x="240" y="96" xlink:href="#p" />
<use x="252" y="96" xlink:href="#p" />
<use x="264" y="96" xlink:href="#p" />
<use x="276" y="96" xlink:href="#p" />
<use x="288" y="96" xlink:href="#p" />
<use x="300" y="96" xlink:href="#p" />
<use x="312" y="96" xlink:href="#p" />
<use x="180" y="108" xlink:href="#p" />
<use x="204" y="108" xlink:href="#p" />
<use x="60" y="120" xlink:href="#p" />
<use x="72" y="120" xlink:href="#p" />
<use x="96" y="120" xlink:href="#p" />
<use x="108" y="120" xlink:href="#p" />
<use x="132" y="120" xlink:href="#p" />
<use x="144" y="120" xlink:href="#p" />
<use x="156" y="120" xlink:href="#p" />
<use x="180" y="120" xlink:href="#p" />
<use x="204" y="120" xlink:href="#p" />
<use x="216" y="120" xlink:href="#p" />
<use x="276" y="120" xlink:href="#p" />
<use x="288" y="120" xlink:href="#p" />
<use x="48" y="132" xlink:href="#p" />
<use x="60" y="132" xlink:href="#p" />
<use x="84" y="132" xlink:href="#p" />
<use x="108" y="132" xlink:href="#p" />
<use x="132" y="132" xlink:href="#p" />
<use x="180" y="132" xlink:href="#p" />
<use x="216" y="132" xlink:href="#p" />
<use x="252" y="132" xlink:href="#p" />
<use x="276" y="132" xlink:href="#p" />
<use x="288" y="132" xlink:href="#p" />
<use x="72" y="144" xlink:href="#p" />
<use x="96" y="144" xlink:href="#p" />
<use x="120" y="144" xlink:href="#p" />
<use x="168" y="144" xlink:href="#p" />
<use x="180" y="144" xlink:href="#p" />
<use x="192" y="144" xlink:href="#p" />
<use x="204" y="144" xlink:href="#p" />
<use x="228" y="144" xlink:href="#p" />
<use x="264" y="144" xlink:href="#p" />
<use x="276" y="144" xlink:href="#p" />
<use x="288" y="144" xlink:href="#p" />
<use x="300" y="144" xlink:href="#p" />
<use x="24" y="156" xlink:href="#p" />
<use x="36" y="156" xlink:href="#p" />
<use x="108" y="156" xlink:href="#p" />
<use x="120" y="156" xlink:href="#p" />
<use x="156" y="156" xlink:href="#p" />
<use x="168" y="156" xlink:href="#p" />
<use x="192" y="156" xlink:href="#p" />
<use x="216" y="156" xlink:href="#p" />
<use x="228" y="156" xlink:href="#p" />
<use x="240" y="156" xlink:href="#p" />
<use x="276" y="156" xlink:href="#p" />
<use x="312" y="156" xlink:href="#p" />
<use x="24" y="168" xlink:href="#p" />
<use x="48" y="168" xlink:href="#p" />
<use x="60" y="168" xlink:href="#p" />
<use x="84" y="168" xlink:href="#p" />
<use x="96" y="168" xlink:href="#p" />
<use x="108" y="168" xlink:href="#p" />
<use x="120" y="168" xlink:href="#p" />
<use x="168" y="168" xlink:href="#p" />
<use x="228" y="168" xlink:href="#p" />
<use x="276" y="168" xlink:href="#p" />
<use x="24" y="180" xlink:href="#p" />
<use x="60" y="180" xlink:href="#p" />
<use x="84" y="180" xlink:href="#p" />
<use x="120" y="180" xlink:href="#p" />
<use x="156" y="180" xlink:href="#p" />
<use x="168" y="180" xlink:href="#p" />
<use x="192" y="180" xlink:href="#p" />
<use x="228" y="180" xlink:href="#p" />
<use x="252" y="180" xlink:href="#p" />
<use x="276" y="180" xlink:href="#p" />
<use x="300" y="180" xlink:href="#p" />
<use x="24" y="192" xlink:href="#p" />
<use x="36" y="192" xlink:href="#p" />
<use x="48" y="192" xlink:href="#p" />
<use x="60" y="192" xlink:href="#p" />
<use x="96" y="192" xlink:href="#p" />
<use x="108" y="192" xlink:href="#p" />
<use x="120" y="192" xlink:href="#p" />
<use x="192" y="192" xlink:href="#p" />
<use x="204" y="192" xlink:href="#p" />
<use x="228" y="192" xlink:href="#p" />
<use x="252" y="192" xlink:href="#p" />
<use x="264" y="192" xlink:href="#p" />
<use x="276" y="192" xlink:href="#p" />
<use x="288" y="192" xlink:href="#p" />
<use x="24" y="204" xlink:href="#p" />
<use x="48" y="204" xlink:href="#p" />
<use x="60" y="204" xlink:href="#p" />
<use x="72" y="204" xlink:href="#p" />
<use x="108" y="204" xlink:href="#p" />
<use x="120" y="204" xlink:href="#p" />
<use x="132" y="204" xlink:href="#p" />
<use x="156" y="204" xlink:href="#p" />
<use x="180" y="204" xlink:href="#p" />
<use x="216" y="204" xlink:href="#p" />
<use x="228" y="204" xlink:href="#p" />
<use x="240" y="204" xlink:href="#p" />
<use x="252" y="204" xlink:href="#p" />
<use x="264" y="204" xlink:href="#p" />
<use x="312" y="204" xlink:href="#p" />
<use x="24" y="216" xlink:href="#p" />
<use x="96" y="216" xlink:href="#p" />
<use x="108" y="216" xlink:href="#p" />
<use x="120" y="216" xlink:href="#p" />
<use x="132" y="216" xlink:href="#p" />
<use x="156" y="216" xlink:href="#p" />
<use x="168" y="216" xlink:href="#p" />
<use x="180" y="216" xlink:href="#p" />
<use x="204" y="216" xlink:href="#p" />
<use x="216" y="216" xlink:href="#p" />
<use x="228" y="216" xlink:href="#p" />
<use x="240" y="216" xlink:href="#p" />
<use x="252" y="216" xlink:href="#p" />
<use x="264" y="216" xlink:href="#p" />
<use x="288" y="216" xlink:href="#p" />
<use x="300" y="216" xlink:href="#p" />
<use x="120" y="228" xlink:href="#p" />
<use x="180" y="228" xlink:href="#p" />
<use x="192" y="228" xlink:href="#p" />
<use x="216" y="228" xlink:href="#p" />
<use x="264" y="228" xlink:href="#p" />
<use x="300" y="228" xlink:href="#p" />
<use x="24" y="240" xlink:href="#p" />
<use x="36" y="240" xlink:href="#p" />
<use x="48" y="240" xlink:href="#p" />
<use x="60" y="240" xlink:href="#p" />
<use x="72" y="240" xlink:href="#p" />
<use x="84" y="240" xlink:href="#p" />
<use x="96" y="240" xlink:href="#p" />
<use x="120" y="240" xlink:href="#p" />
<use x="144" y="240" xlink:href="#p" />
<use x="156" y="240" xlink:href="#p" />
<use x="180" y="240" xlink:href="#p" />
<use x="204" y="240" xlink:href="#p" />
<use x="216" y="240" xlink:href="#p" />
<use x="240" y="240" xlink:href="#p" />
<use x="264" y="240" xlink:href="#p" />
<use x="276" y="240" xlink:href="#p" />
<use x="24" y="252" xlink:href="#p" />
<use x="96" y="252" xlink:href="#p" />
<use x="156" y="252" xlink:href="#p" />
<use x="192" y="252" xlink:href="#p" />
<use x="204" y="252" xlink:href="#p" />
<use x="216" y="252" xlink:href="#p" />
<use x="264" y="252" xlink:href="#p" />
<use x="288" y="252" xlink:href="#p" />
<use x="312" y="252" xlink:href="#p" />
<use x="24" y="264" xlink:href="#p" />
<use x="48" y="264" xlink:href="#p" />
<use x="60" y="264" xlink:href="#p" />
<use x="72" y="264" xlink:href="#p" />
<use x="96" y="264" xlink:href="#p" />
<use x="120" y="264" xlink:href="#p" />
<use x="132" y="264" xlink:href="#p" />
<use x="180" y="264" xlink:href="#p" />
<use x="216" y="264" xlink:href="#p" />
<use x="228" y="264" xlink:href="#p" />
<use x="240" y="264" xlink:href="#p" />
<use x="252" y="264" xlink:href="#p" />
<use x="264" y="264" xlink:href="#p" />
<use x="276" y="264" xlink:href="#p" />
<use x="300" y="264" xlink:href="#p" />
<use x="24" y="276" xlink:href="#p" />
<use x="48" y="276" xlink:href="#p" />
<use x="60" y="276" xlink:href="#p" />
<use x="72" y="276" xlink:href="#p" />
<use x="96" y="276" xlink:href="#p" />
<use x="120" y="276" xlink:href="#p" />
<use x="144" y="276" xlink:href="#p" />
<use x="180" y="276" xlink:href="#p" />
<use x="192" y="276" xlink:href="#p" />
<use x="252" y="276" xlink:href="#p" />
<use x="264" y="276" xlink:href="#p" />
<use x="312" y="276" xlink:href="#p" />
<use x="24" y="288" xlink:href="#p" />
<use x="48" y="288" xlink:href="#p" />
<use x="60" y="288" xlink:href="#p" />
<use x="72" y="288" xlink:href="#p" />
<use x="96" y="288" xlink:href="#p" />
<use x="156" y="288" xlink:href="#p" />
<use x="180" y="288" xlink:href="#p" />
<use x="216" y="288" xlink:href="#p" />
<use x="228" y="288" xlink:href="#p" />
<use x="288" y="288" xlink:href="#p" />
<use x="300" y="288" xlink:href="#p" />
<use x="312" y="288" xlink:href="#p" />
<use x="24" y="300" xlink:href="#p" />
<use x="96" y="300" xlink:href="#p" />
<use x="132" y="300" xlink:href="#p" />
<use x="144" y="300" xlink:href="#p" />
<use x="192" y="300" xlink:href="#p" />
<use x="216" y="300" xlink:href="#p" />
<use x="240" y="300" xlink:href="#p" />
<use x="264" y="300" xlink:href="#p" />
<use x="276" y="300" xlink:href="#p" />
<use x="300" y="300" xlink:href="#p" />
<use x="312" y="300" xlink:href="#p" />
<use x="24" y="312" xlink:href="#p" />
<use x="36" y="312" xlink:href="#p" />
<use x="48" y="312" xlink:href="#p" />
<use x="60" y="312" xlink:href="#p" />
<use x="72" y="312" xlink:href="#p" />
<use x="84" y="312" xlink:href="#p" />
<use x="96" y="312" xlink:href="#p" />
<use x="132" y="312" xlink:href="#p" />
<use x="144" y="312" xlink:href="#p" />
<use x="156" y="312" xlink:href="#p" />
<use x="204" y="312" xlink:href="#p" />
<use x="216" y="312" xlink:href="#p" />
<use x="228" y="312" xlink:href="#p" />
<use x="264" y="312" xlink:href="#p" />
<use x="276" y="312" xlink:href="#p" />
<use x="312" y="312" xlink:href="#p" />
</g>
</svg>